<mxfile host="app.diagrams.net" agent="Mozilla/5.0 (X11; Linux x86_64) AppleWebKit/537.36 (KHTML, like Gecko) Chrome/131.0.0.0 Safari/537.36" version="26.0.16">
  <diagram name="第 1 页" id="BZXvU54tfkSE4GY4umAv">
    <mxGraphModel dx="2074" dy="1147" grid="1" gridSize="10" guides="1" tooltips="1" connect="1" arrows="1" fold="1" page="1" pageScale="1" pageWidth="827" pageHeight="1169" math="0" shadow="0">
      <root>
        <mxCell id="0" />
        <mxCell id="1" parent="0" />
        <mxCell id="95JUPy15KReuuwNgjUug-65" value="&lt;b&gt;&lt;font style=&quot;font-size: 20px;&quot;&gt;host 0&lt;/font&gt;&lt;/b&gt;" style="ellipse;whiteSpace=wrap;html=1;aspect=fixed;" vertex="1" parent="1">
          <mxGeometry x="79" y="137" width="150" height="150" as="geometry" />
        </mxCell>
        <mxCell id="95JUPy15KReuuwNgjUug-66" value="&lt;b&gt;&lt;font style=&quot;font-size: 20px;&quot;&gt;host 2&lt;/font&gt;&lt;/b&gt;" style="ellipse;whiteSpace=wrap;html=1;aspect=fixed;" vertex="1" parent="1">
          <mxGeometry x="79" y="577" width="150" height="150" as="geometry" />
        </mxCell>
        <mxCell id="95JUPy15KReuuwNgjUug-67" value="&lt;b&gt;&lt;font style=&quot;font-size: 20px;&quot;&gt;host 1&lt;/font&gt;&lt;/b&gt;" style="ellipse;whiteSpace=wrap;html=1;aspect=fixed;" vertex="1" parent="1">
          <mxGeometry x="559" y="137" width="150" height="150" as="geometry" />
        </mxCell>
        <mxCell id="95JUPy15KReuuwNgjUug-68" value="&lt;b&gt;&lt;font style=&quot;font-size: 20px;&quot;&gt;host 3&lt;/font&gt;&lt;/b&gt;" style="ellipse;whiteSpace=wrap;html=1;aspect=fixed;" vertex="1" parent="1">
          <mxGeometry x="559" y="577" width="150" height="150" as="geometry" />
        </mxCell>
        <mxCell id="95JUPy15KReuuwNgjUug-69" value="" style="group" vertex="1" connectable="0" parent="1">
          <mxGeometry x="212" y="197" width="85" height="30" as="geometry" />
        </mxCell>
        <mxCell id="95JUPy15KReuuwNgjUug-70" value="" style="whiteSpace=wrap;html=1;aspect=fixed;" vertex="1" parent="95JUPy15KReuuwNgjUug-69">
          <mxGeometry width="30" height="30" as="geometry" />
        </mxCell>
        <mxCell id="95JUPy15KReuuwNgjUug-71" value="&lt;font style=&quot;font-size: 15px;&quot;&gt;port 1&lt;/font&gt;" style="text;html=1;align=center;verticalAlign=middle;resizable=0;points=[];autosize=1;strokeColor=none;fillColor=none;" vertex="1" parent="95JUPy15KReuuwNgjUug-69">
          <mxGeometry x="25" width="60" height="30" as="geometry" />
        </mxCell>
        <mxCell id="95JUPy15KReuuwNgjUug-72" value="" style="group" vertex="1" connectable="0" parent="1">
          <mxGeometry x="139" y="274" width="85" height="30" as="geometry" />
        </mxCell>
        <mxCell id="95JUPy15KReuuwNgjUug-73" value="" style="whiteSpace=wrap;html=1;aspect=fixed;" vertex="1" parent="95JUPy15KReuuwNgjUug-72">
          <mxGeometry width="30" height="30" as="geometry" />
        </mxCell>
        <mxCell id="95JUPy15KReuuwNgjUug-74" value="&lt;font style=&quot;font-size: 15px;&quot;&gt;port 2&lt;/font&gt;" style="text;html=1;align=center;verticalAlign=middle;resizable=0;points=[];autosize=1;strokeColor=none;fillColor=none;" vertex="1" parent="95JUPy15KReuuwNgjUug-72">
          <mxGeometry x="25" width="60" height="30" as="geometry" />
        </mxCell>
        <mxCell id="95JUPy15KReuuwNgjUug-75" value="" style="group" vertex="1" connectable="0" parent="1">
          <mxGeometry x="192" y="246" width="85" height="30" as="geometry" />
        </mxCell>
        <mxCell id="95JUPy15KReuuwNgjUug-76" value="" style="whiteSpace=wrap;html=1;aspect=fixed;" vertex="1" parent="95JUPy15KReuuwNgjUug-75">
          <mxGeometry width="30" height="30" as="geometry" />
        </mxCell>
        <mxCell id="95JUPy15KReuuwNgjUug-77" value="&lt;font style=&quot;font-size: 15px;&quot;&gt;port 3&lt;/font&gt;" style="text;html=1;align=center;verticalAlign=middle;resizable=0;points=[];autosize=1;strokeColor=none;fillColor=none;" vertex="1" parent="95JUPy15KReuuwNgjUug-75">
          <mxGeometry x="25" width="60" height="30" as="geometry" />
        </mxCell>
        <mxCell id="95JUPy15KReuuwNgjUug-78" value="" style="group" vertex="1" connectable="0" parent="1">
          <mxGeometry x="139" y="557" width="85" height="30" as="geometry" />
        </mxCell>
        <mxCell id="95JUPy15KReuuwNgjUug-79" value="" style="whiteSpace=wrap;html=1;aspect=fixed;" vertex="1" parent="95JUPy15KReuuwNgjUug-78">
          <mxGeometry width="30" height="30" as="geometry" />
        </mxCell>
        <mxCell id="95JUPy15KReuuwNgjUug-80" value="&lt;font style=&quot;font-size: 15px;&quot;&gt;port 0&lt;/font&gt;" style="text;html=1;align=center;verticalAlign=middle;resizable=0;points=[];autosize=1;strokeColor=none;fillColor=none;" vertex="1" parent="95JUPy15KReuuwNgjUug-78">
          <mxGeometry x="25" width="60" height="30" as="geometry" />
        </mxCell>
        <mxCell id="95JUPy15KReuuwNgjUug-81" value="" style="group" vertex="1" connectable="0" parent="1">
          <mxGeometry x="213" y="637" width="85" height="30" as="geometry" />
        </mxCell>
        <mxCell id="95JUPy15KReuuwNgjUug-82" value="" style="whiteSpace=wrap;html=1;aspect=fixed;" vertex="1" parent="95JUPy15KReuuwNgjUug-81">
          <mxGeometry width="30" height="30" as="geometry" />
        </mxCell>
        <mxCell id="95JUPy15KReuuwNgjUug-83" value="&lt;font style=&quot;font-size: 15px;&quot;&gt;port 3&lt;/font&gt;" style="text;html=1;align=center;verticalAlign=middle;resizable=0;points=[];autosize=1;strokeColor=none;fillColor=none;" vertex="1" parent="95JUPy15KReuuwNgjUug-81">
          <mxGeometry x="25" width="60" height="30" as="geometry" />
        </mxCell>
        <mxCell id="95JUPy15KReuuwNgjUug-84" value="" style="group" vertex="1" connectable="0" parent="1">
          <mxGeometry x="192" y="588" width="85" height="30" as="geometry" />
        </mxCell>
        <mxCell id="95JUPy15KReuuwNgjUug-85" value="" style="whiteSpace=wrap;html=1;aspect=fixed;" vertex="1" parent="95JUPy15KReuuwNgjUug-84">
          <mxGeometry width="30" height="30" as="geometry" />
        </mxCell>
        <mxCell id="95JUPy15KReuuwNgjUug-86" value="&lt;font style=&quot;font-size: 15px;&quot;&gt;port 1&lt;/font&gt;" style="text;html=1;align=center;verticalAlign=middle;resizable=0;points=[];autosize=1;strokeColor=none;fillColor=none;" vertex="1" parent="95JUPy15KReuuwNgjUug-84">
          <mxGeometry x="25" width="60" height="30" as="geometry" />
        </mxCell>
        <mxCell id="95JUPy15KReuuwNgjUug-87" value="" style="group" vertex="1" connectable="0" parent="1">
          <mxGeometry x="489" y="197" width="86" height="30" as="geometry" />
        </mxCell>
        <mxCell id="95JUPy15KReuuwNgjUug-88" value="" style="whiteSpace=wrap;html=1;aspect=fixed;" vertex="1" parent="95JUPy15KReuuwNgjUug-87">
          <mxGeometry x="56" width="30" height="30" as="geometry" />
        </mxCell>
        <mxCell id="95JUPy15KReuuwNgjUug-89" value="&lt;font style=&quot;font-size: 15px;&quot;&gt;port 0&lt;/font&gt;" style="text;html=1;align=center;verticalAlign=middle;resizable=0;points=[];autosize=1;strokeColor=none;fillColor=none;" vertex="1" parent="95JUPy15KReuuwNgjUug-87">
          <mxGeometry width="60" height="30" as="geometry" />
        </mxCell>
        <mxCell id="95JUPy15KReuuwNgjUug-90" value="" style="group" vertex="1" connectable="0" parent="1">
          <mxGeometry x="511" y="247" width="86" height="30" as="geometry" />
        </mxCell>
        <mxCell id="95JUPy15KReuuwNgjUug-91" value="" style="whiteSpace=wrap;html=1;aspect=fixed;" vertex="1" parent="95JUPy15KReuuwNgjUug-90">
          <mxGeometry x="56" width="30" height="30" as="geometry" />
        </mxCell>
        <mxCell id="95JUPy15KReuuwNgjUug-92" value="&lt;font style=&quot;font-size: 15px;&quot;&gt;port 2&lt;/font&gt;" style="text;html=1;align=center;verticalAlign=middle;resizable=0;points=[];autosize=1;strokeColor=none;fillColor=none;" vertex="1" parent="95JUPy15KReuuwNgjUug-90">
          <mxGeometry width="60" height="30" as="geometry" />
        </mxCell>
        <mxCell id="95JUPy15KReuuwNgjUug-93" value="" style="group" vertex="1" connectable="0" parent="1">
          <mxGeometry x="565" y="277" width="86" height="30" as="geometry" />
        </mxCell>
        <mxCell id="95JUPy15KReuuwNgjUug-94" value="" style="whiteSpace=wrap;html=1;aspect=fixed;" vertex="1" parent="95JUPy15KReuuwNgjUug-93">
          <mxGeometry x="56" width="30" height="30" as="geometry" />
        </mxCell>
        <mxCell id="95JUPy15KReuuwNgjUug-95" value="&lt;font style=&quot;font-size: 15px;&quot;&gt;port 3&lt;/font&gt;" style="text;html=1;align=center;verticalAlign=middle;resizable=0;points=[];autosize=1;strokeColor=none;fillColor=none;" vertex="1" parent="95JUPy15KReuuwNgjUug-93">
          <mxGeometry width="60" height="30" as="geometry" />
        </mxCell>
        <mxCell id="95JUPy15KReuuwNgjUug-96" value="" style="group" vertex="1" connectable="0" parent="1">
          <mxGeometry x="489" y="637" width="86" height="30" as="geometry" />
        </mxCell>
        <mxCell id="95JUPy15KReuuwNgjUug-97" value="" style="whiteSpace=wrap;html=1;aspect=fixed;" vertex="1" parent="95JUPy15KReuuwNgjUug-96">
          <mxGeometry x="56" width="30" height="30" as="geometry" />
        </mxCell>
        <mxCell id="95JUPy15KReuuwNgjUug-98" value="&lt;font style=&quot;font-size: 15px;&quot;&gt;port 2&lt;/font&gt;" style="text;html=1;align=center;verticalAlign=middle;resizable=0;points=[];autosize=1;strokeColor=none;fillColor=none;" vertex="1" parent="95JUPy15KReuuwNgjUug-96">
          <mxGeometry width="60" height="30" as="geometry" />
        </mxCell>
        <mxCell id="95JUPy15KReuuwNgjUug-99" value="" style="group" vertex="1" connectable="0" parent="1">
          <mxGeometry x="510" y="588" width="86" height="30" as="geometry" />
        </mxCell>
        <mxCell id="95JUPy15KReuuwNgjUug-100" value="" style="whiteSpace=wrap;html=1;aspect=fixed;" vertex="1" parent="95JUPy15KReuuwNgjUug-99">
          <mxGeometry x="56" width="30" height="30" as="geometry" />
        </mxCell>
        <mxCell id="95JUPy15KReuuwNgjUug-101" value="&lt;font style=&quot;font-size: 15px;&quot;&gt;port 0&lt;/font&gt;" style="text;html=1;align=center;verticalAlign=middle;resizable=0;points=[];autosize=1;strokeColor=none;fillColor=none;" vertex="1" parent="95JUPy15KReuuwNgjUug-99">
          <mxGeometry width="60" height="30" as="geometry" />
        </mxCell>
        <mxCell id="95JUPy15KReuuwNgjUug-102" value="" style="group" vertex="1" connectable="0" parent="1">
          <mxGeometry x="565" y="557" width="86" height="30" as="geometry" />
        </mxCell>
        <mxCell id="95JUPy15KReuuwNgjUug-103" value="" style="whiteSpace=wrap;html=1;aspect=fixed;" vertex="1" parent="95JUPy15KReuuwNgjUug-102">
          <mxGeometry x="56" width="30" height="30" as="geometry" />
        </mxCell>
        <mxCell id="95JUPy15KReuuwNgjUug-104" value="&lt;font style=&quot;font-size: 15px;&quot;&gt;port 1&lt;/font&gt;" style="text;html=1;align=center;verticalAlign=middle;resizable=0;points=[];autosize=1;strokeColor=none;fillColor=none;" vertex="1" parent="95JUPy15KReuuwNgjUug-102">
          <mxGeometry width="60" height="30" as="geometry" />
        </mxCell>
        <mxCell id="95JUPy15KReuuwNgjUug-105" value="" style="group" vertex="1" connectable="0" parent="1">
          <mxGeometry x="139" y="110" width="125" height="40" as="geometry" />
        </mxCell>
        <mxCell id="95JUPy15KReuuwNgjUug-106" value="" style="whiteSpace=wrap;html=1;aspect=fixed;" vertex="1" parent="95JUPy15KReuuwNgjUug-105">
          <mxGeometry width="30" height="30" as="geometry" />
        </mxCell>
        <mxCell id="95JUPy15KReuuwNgjUug-107" value="&lt;font style=&quot;font-size: 15px;&quot;&gt;&lt;span style=&quot;white-space: pre;&quot;&gt;&#x9;&lt;/span&gt;&amp;nbsp;snd_port &amp;amp;&amp;amp;&lt;/font&gt;&lt;div&gt;&lt;font style=&quot;font-size: 15px;&quot;&gt;&amp;nbsp; &amp;nbsp; &amp;nbsp; &amp;nbsp; ack_port&lt;/font&gt;&lt;/div&gt;" style="text;html=1;align=center;verticalAlign=middle;resizable=0;points=[];autosize=1;strokeColor=none;fillColor=none;" vertex="1" parent="95JUPy15KReuuwNgjUug-105">
          <mxGeometry x="-15" y="-10" width="140" height="50" as="geometry" />
        </mxCell>
        <mxCell id="95JUPy15KReuuwNgjUug-108" value="" style="group" vertex="1" connectable="0" parent="1">
          <mxGeometry x="139" y="724" width="130" height="40" as="geometry" />
        </mxCell>
        <mxCell id="95JUPy15KReuuwNgjUug-109" value="" style="whiteSpace=wrap;html=1;aspect=fixed;" vertex="1" parent="95JUPy15KReuuwNgjUug-108">
          <mxGeometry width="30" height="30" as="geometry" />
        </mxCell>
        <mxCell id="95JUPy15KReuuwNgjUug-110" value="&lt;font style=&quot;font-size: 15px;&quot;&gt;&lt;span style=&quot;white-space: pre;&quot;&gt;&#x9;&lt;/span&gt;&amp;nbsp; snd_port &amp;amp;&amp;amp;&lt;/font&gt;&lt;div&gt;&lt;font style=&quot;font-size: 15px;&quot;&gt;&amp;nbsp; &amp;nbsp; &amp;nbsp; &amp;nbsp; ack_port&lt;/font&gt;&lt;/div&gt;" style="text;html=1;align=center;verticalAlign=middle;resizable=0;points=[];autosize=1;strokeColor=none;fillColor=none;" vertex="1" parent="95JUPy15KReuuwNgjUug-108">
          <mxGeometry x="-20" y="-10" width="150" height="50" as="geometry" />
        </mxCell>
        <mxCell id="95JUPy15KReuuwNgjUug-111" value="" style="group" vertex="1" connectable="0" parent="1">
          <mxGeometry x="619" y="111" width="130" height="40" as="geometry" />
        </mxCell>
        <mxCell id="95JUPy15KReuuwNgjUug-112" value="" style="whiteSpace=wrap;html=1;aspect=fixed;" vertex="1" parent="95JUPy15KReuuwNgjUug-111">
          <mxGeometry width="30" height="30" as="geometry" />
        </mxCell>
        <mxCell id="95JUPy15KReuuwNgjUug-113" value="&lt;font style=&quot;font-size: 15px;&quot;&gt;&lt;span style=&quot;white-space: pre;&quot;&gt;&#x9;&lt;/span&gt;&amp;nbsp; snd_port &amp;amp;&amp;amp;&lt;/font&gt;&lt;div&gt;&lt;font style=&quot;font-size: 15px;&quot;&gt;&amp;nbsp; &amp;nbsp; &amp;nbsp; &amp;nbsp; ack_port&lt;/font&gt;&lt;/div&gt;" style="text;html=1;align=center;verticalAlign=middle;resizable=0;points=[];autosize=1;strokeColor=none;fillColor=none;" vertex="1" parent="95JUPy15KReuuwNgjUug-111">
          <mxGeometry x="-20" y="-10" width="150" height="50" as="geometry" />
        </mxCell>
        <mxCell id="95JUPy15KReuuwNgjUug-114" value="" style="group" vertex="1" connectable="0" parent="1">
          <mxGeometry x="619" y="724" width="130" height="40" as="geometry" />
        </mxCell>
        <mxCell id="95JUPy15KReuuwNgjUug-115" value="" style="whiteSpace=wrap;html=1;aspect=fixed;" vertex="1" parent="95JUPy15KReuuwNgjUug-114">
          <mxGeometry width="30" height="30" as="geometry" />
        </mxCell>
        <mxCell id="95JUPy15KReuuwNgjUug-116" value="&lt;font style=&quot;font-size: 15px;&quot;&gt;&lt;span style=&quot;white-space: pre;&quot;&gt;&#x9;&lt;/span&gt;&amp;nbsp; snd_port &amp;amp;&amp;amp;&lt;/font&gt;&lt;div&gt;&lt;font style=&quot;font-size: 15px;&quot;&gt;&amp;nbsp; &amp;nbsp; &amp;nbsp; &amp;nbsp; ack_port&lt;/font&gt;&lt;/div&gt;" style="text;html=1;align=center;verticalAlign=middle;resizable=0;points=[];autosize=1;strokeColor=none;fillColor=none;" vertex="1" parent="95JUPy15KReuuwNgjUug-114">
          <mxGeometry x="-20" y="-10" width="150" height="50" as="geometry" />
        </mxCell>
        <mxCell id="95JUPy15KReuuwNgjUug-117" value="" style="endArrow=classic;dashed=1;html=1;endFill=1;rounded=0;curved=1;exitX=0.992;exitY=0.533;exitDx=0;exitDy=0;exitPerimeter=0;startArrow=classic;startFill=1;" edge="1" parent="1" source="95JUPy15KReuuwNgjUug-107">
          <mxGeometry width="50" height="50" relative="1" as="geometry">
            <mxPoint x="269" y="37" as="sourcePoint" />
            <mxPoint x="499" y="207" as="targetPoint" />
          </mxGeometry>
        </mxCell>
        <mxCell id="95JUPy15KReuuwNgjUug-118" value="" style="endArrow=classic;dashed=1;html=1;endFill=1;rounded=0;curved=1;exitX=1.003;exitY=0.667;exitDx=0;exitDy=0;exitPerimeter=0;entryX=0.65;entryY=-0.056;entryDx=0;entryDy=0;entryPerimeter=0;startArrow=classic;startFill=1;" edge="1" parent="1" source="95JUPy15KReuuwNgjUug-107" target="95JUPy15KReuuwNgjUug-101">
          <mxGeometry width="50" height="50" relative="1" as="geometry">
            <mxPoint x="263" y="143" as="sourcePoint" />
            <mxPoint x="502" y="223" as="targetPoint" />
            <Array as="points">
              <mxPoint x="549" y="297" />
            </Array>
          </mxGeometry>
        </mxCell>
        <mxCell id="95JUPy15KReuuwNgjUug-119" value="" style="endArrow=classic;dashed=1;html=1;endFill=1;rounded=0;curved=1;exitX=0.992;exitY=0.889;exitDx=0;exitDy=0;exitPerimeter=0;entryX=0.5;entryY=0;entryDx=0;entryDy=0;startArrow=classic;startFill=1;" edge="1" parent="1" source="95JUPy15KReuuwNgjUug-107" target="95JUPy15KReuuwNgjUug-79">
          <mxGeometry width="50" height="50" relative="1" as="geometry">
            <mxPoint x="273" y="153" as="sourcePoint" />
            <mxPoint x="512" y="233" as="targetPoint" />
            <Array as="points">
              <mxPoint x="549" y="407" />
            </Array>
          </mxGeometry>
        </mxCell>
        <mxCell id="95JUPy15KReuuwNgjUug-120" value="" style="endArrow=classic;dashed=1;html=1;endFill=1;rounded=0;curved=1;entryX=0.978;entryY=0.533;entryDx=0;entryDy=0;entryPerimeter=0;startArrow=classic;startFill=1;" edge="1" parent="1" target="95JUPy15KReuuwNgjUug-71">
          <mxGeometry width="50" height="50" relative="1" as="geometry">
            <mxPoint x="579" y="127" as="sourcePoint" />
            <mxPoint x="502" y="223" as="targetPoint" />
            <Array as="points">
              <mxPoint x="469" y="157" />
            </Array>
          </mxGeometry>
        </mxCell>
        <mxCell id="95JUPy15KReuuwNgjUug-121" value="" style="endArrow=classic;dashed=1;html=1;endFill=1;rounded=0;curved=1;entryX=0.489;entryY=0.033;entryDx=0;entryDy=0;entryPerimeter=0;startArrow=classic;startFill=1;" edge="1" parent="1" target="95JUPy15KReuuwNgjUug-86">
          <mxGeometry width="50" height="50" relative="1" as="geometry">
            <mxPoint x="579" y="137" as="sourcePoint" />
            <mxPoint x="512" y="233" as="targetPoint" />
            <Array as="points">
              <mxPoint x="199" y="337" />
            </Array>
          </mxGeometry>
        </mxCell>
        <mxCell id="95JUPy15KReuuwNgjUug-122" value="" style="endArrow=classic;dashed=1;html=1;endFill=1;rounded=0;curved=1;entryX=0.5;entryY=0;entryDx=0;entryDy=0;startArrow=classic;startFill=1;" edge="1" parent="1" target="95JUPy15KReuuwNgjUug-103">
          <mxGeometry width="50" height="50" relative="1" as="geometry">
            <mxPoint x="579" y="147" as="sourcePoint" />
            <mxPoint x="522" y="243" as="targetPoint" />
            <Array as="points">
              <mxPoint x="249" y="397" />
            </Array>
          </mxGeometry>
        </mxCell>
        <mxCell id="95JUPy15KReuuwNgjUug-123" value="" style="endArrow=classic;dashed=1;html=1;endFill=1;rounded=0;curved=1;entryX=-0.05;entryY=1.167;entryDx=0;entryDy=0;entryPerimeter=0;exitX=0.969;exitY=0.178;exitDx=0;exitDy=0;exitPerimeter=0;startArrow=classic;startFill=1;" edge="1" parent="1" source="95JUPy15KReuuwNgjUug-110" target="95JUPy15KReuuwNgjUug-74">
          <mxGeometry width="50" height="50" relative="1" as="geometry">
            <mxPoint x="257" y="732" as="sourcePoint" />
            <mxPoint x="502" y="223" as="targetPoint" />
            <Array as="points">
              <mxPoint x="519" y="497" />
            </Array>
          </mxGeometry>
        </mxCell>
        <mxCell id="95JUPy15KReuuwNgjUug-124" value="" style="endArrow=classic;dashed=1;html=1;endFill=1;rounded=0;curved=1;entryX=0.567;entryY=1.089;entryDx=0;entryDy=0;entryPerimeter=0;startArrow=classic;startFill=1;" edge="1" parent="1" target="95JUPy15KReuuwNgjUug-92">
          <mxGeometry width="50" height="50" relative="1" as="geometry">
            <mxPoint x="259" y="727" as="sourcePoint" />
            <mxPoint x="549" y="287" as="targetPoint" />
            <Array as="points">
              <mxPoint x="479" y="567" />
            </Array>
          </mxGeometry>
        </mxCell>
        <mxCell id="95JUPy15KReuuwNgjUug-125" value="" style="endArrow=classic;dashed=1;html=1;endFill=1;rounded=0;curved=1;startArrow=classic;startFill=1;" edge="1" parent="1">
          <mxGeometry width="50" height="50" relative="1" as="geometry">
            <mxPoint x="259" y="737" as="sourcePoint" />
            <mxPoint x="499" y="657" as="targetPoint" />
          </mxGeometry>
        </mxCell>
        <mxCell id="95JUPy15KReuuwNgjUug-126" value="" style="endArrow=classic;dashed=1;html=1;endFill=1;rounded=0;curved=1;entryX=0.5;entryY=1;entryDx=0;entryDy=0;startArrow=classic;startFill=1;" edge="1" parent="1" target="95JUPy15KReuuwNgjUug-94">
          <mxGeometry width="50" height="50" relative="1" as="geometry">
            <mxPoint x="569" y="727" as="sourcePoint" />
            <mxPoint x="496" y="660" as="targetPoint" />
            <Array as="points">
              <mxPoint x="299" y="507" />
            </Array>
          </mxGeometry>
        </mxCell>
        <mxCell id="95JUPy15KReuuwNgjUug-127" value="" style="endArrow=classic;dashed=1;html=1;endFill=1;rounded=0;curved=1;entryX=0.489;entryY=0.9;entryDx=0;entryDy=0;entryPerimeter=0;startArrow=classic;startFill=1;" edge="1" parent="1" target="95JUPy15KReuuwNgjUug-77">
          <mxGeometry width="50" height="50" relative="1" as="geometry">
            <mxPoint x="559" y="727" as="sourcePoint" />
            <mxPoint x="297" y="647" as="targetPoint" />
            <Array as="points">
              <mxPoint x="309" y="557" />
            </Array>
          </mxGeometry>
        </mxCell>
        <mxCell id="95JUPy15KReuuwNgjUug-128" value="" style="endArrow=classic;dashed=1;html=1;endFill=1;rounded=0;curved=1;startArrow=classic;startFill=1;" edge="1" parent="1">
          <mxGeometry width="50" height="50" relative="1" as="geometry">
            <mxPoint x="569" y="737" as="sourcePoint" />
            <mxPoint x="299" y="657" as="targetPoint" />
          </mxGeometry>
        </mxCell>
      </root>
    </mxGraphModel>
  </diagram>
</mxfile>
